  0
SECTION
  2
HEADER
  9
$ACADVER
  1
AC1009
  0
ENDSEC
  0
SECTION
  2
TABLES
  0
TABLE
  2
LAYER
  70
1
  0
LAYER
  2
Layer_26
  70
0
  62
32
  6
CONTINUOUS
  0
ENDTAB
  0
ENDSEC
  0
SECTION
  2
ENTITIES
  0
POLYLINE
  5
90
  8
Layer_26
  62
32
  70
1
  66
1
  10
0
  20
0
  30
0
  0
VERTEX
  5
90
  8
Layer_26
  10
629.97501
  20
694.99292
  0
VERTEX
  5
91
  8
Layer_26
  10
629.9501
  20
694.74609
  42
-0.1266646
  0
VERTEX
  5
92
  8
Layer_26
  10
629.61636
  20
694.1272
  42
-0.061462563
  0
VERTEX
  5
93
  8
Layer_26
  10
629.2272
  20
693.86475
  42
-0.14099472
  0
VERTEX
  5
94
  8
Layer_26
  10
628.50357
  20
693.79346
  42
-0.056508878
  0
VERTEX
  5
95
  8
Layer_26
  10
628.06583
  20
693.97754
  42
-0.080316771
  0
VERTEX
  5
96
  8
Layer_26
  10
627.73502
  20
694.30835
  0
VERTEX
  5
97
  8
Layer_26
  10
627.62222
  20
694.51636
  42
-0.12597184
  0
VERTEX
  5
98
  8
Layer_26
  10
627.52579
  20
694.99292
  0
VERTEX
  5
99
  8
Layer_26
  10
627.52579
  20
697.15796
  0
VERTEX
  5
9a
  8
Layer_26
  10
595.70474
  20
697.15796
  0
VERTEX
  5
9b
  8
Layer_26
  10
595.70474
  20
694.99487
  0
VERTEX
  5
9c
  8
Layer_26
  10
595.67984
  20
694.74805
  0
VERTEX
  5
9d
  8
Layer_26
  10
595.60464
  20
694.52344
  42
-0.13844116
  0
VERTEX
  5
9e
  8
Layer_26
  10
595.16495
  20
693.97949
  0
VERTEX
  5
9f
  8
Layer_26
  10
594.95694
  20
693.8667
  42
-0.041254362
  0
VERTEX
  5
a0
  8
Layer_26
  10
594.48013
  20
693.77026
  42
-0.034348482
  0
VERTEX
  5
a1
  8
Layer_26
  10
594.11783
  20
693.8252
  0
VERTEX
  5
a2
  8
Layer_26
  10
594.00626
  20
693.86719
  42
-0.029797502
  0
VERTEX
  5
a3
  8
Layer_26
  10
593.79556
  20
693.97949
  42
-0.046611338
  0
VERTEX
  5
a4
  8
Layer_26
  10
593.46475
  20
694.3103
  0
VERTEX
  5
a5
  8
Layer_26
  10
593.35196
  20
694.51831
  0
VERTEX
  5
a6
  8
Layer_26
  10
593.28043
  20
694.74805
  0
VERTEX
  5
a7
  8
Layer_26
  10
593.25552
  20
694.99487
  0
VERTEX
  5
a8
  8
Layer_26
  10
593.25552
  20
697.15796
  0
VERTEX
  5
a9
  8
Layer_26
  10
576.66275
  20
697.15796
  42
0.36211601
  0
VERTEX
  5
aa
  8
Layer_26
  10
572.11612
  20
693.2334
  0
VERTEX
  5
ab
  8
Layer_26
  10
572.07388
  20
692.99829
  42
0.038908273
  0
VERTEX
  5
ac
  8
Layer_26
  10
572.03043
  20
692.28296
  0
VERTEX
  5
ad
  8
Layer_26
  10
572.02969
  20
623.80713
  42
0.044182093
  0
VERTEX
  5
ae
  8
Layer_26
  10
572.06412
  20
623.35815
  42
0.047915979
  0
VERTEX
  5
af
  8
Layer_26
  10
572.25162
  20
622.49805
  0
VERTEX
  5
b0
  8
Layer_26
  10
572.36002
  20
622.18872
  0
VERTEX
  5
b1
  8
Layer_26
  10
572.48746
  20
621.88623
  0
VERTEX
  5
b2
  8
Layer_26
  10
572.63443
  20
621.59717
  42
0.095679126
  0
VERTEX
  5
b3
  8
Layer_26
  10
573.88907
  20
620.14136
  42
0.14752171
  0
VERTEX
  5
b4
  8
Layer_26
  10
576.32339
  20
619.17065
  0
VERTEX
  5
b5
  8
Layer_26
  10
576.66275
  20
619.15771
  0
VERTEX
  5
b6
  8
Layer_26
  10
693.3981
  20
619.15771
  42
0.34466501
  0
VERTEX
  5
b7
  8
Layer_26
  10
697.9064
  20
622.82861
  42
0.055526372
  0
VERTEX
  5
b8
  8
Layer_26
  10
698.03043
  20
624.03271
  0
VERTEX
  5
b9
  8
Layer_26
  10
698.03043
  20
656.15771
  0
VERTEX
  5
ba
  8
Layer_26
  10
694.07755
  20
656.15771
  42
-0.029038123
  0
VERTEX
  5
bb
  8
Layer_26
  10
693.59195
  20
656.22412
  0
VERTEX
  5
bc
  8
Layer_26
  10
693.31461
  20
656.31616
  42
-0.092821073
  0
VERTEX
  5
bd
  8
Layer_26
  10
692.55386
  20
656.85596
  0
VERTEX
  5
be
  8
Layer_26
  10
692.45547
  20
656.97803
  0
VERTEX
  5
bf
  8
Layer_26
  10
692.33633
  20
657.17383
  0
VERTEX
  5
c0
  8
Layer_26
  10
692.23477
  20
657.37915
  0
VERTEX
  5
c1
  8
Layer_26
  10
692.1713
  20
657.54297
  0
VERTEX
  5
c2
  8
Layer_26
  10
692.12369
  20
657.71191
  42
-0.018034638
  0
VERTEX
  5
c3
  8
Layer_26
  10
692.07291
  20
658.05957
  42
-0.035484467
  0
VERTEX
  5
c4
  8
Layer_26
  10
692.11954
  20
658.60278
  0
VERTEX
  5
c5
  8
Layer_26
  10
692.19034
  20
658.82446
  42
-0.25766676
  0
VERTEX
  5
c6
  8
Layer_26
  10
693.67447
  20
660.11719
  0
VERTEX
  5
c7
  8
Layer_26
  10
693.87393
  20
660.15454
  0
VERTEX
  5
c8
  8
Layer_26
  10
694.07755
  20
660.15771
  0
VERTEX
  5
c9
  8
Layer_26
  10
698.03043
  20
660.15771
  0
VERTEX
  5
ca
  8
Layer_26
  10
698.03043
  20
692.28296
  42
0.3631042
  0
VERTEX
  5
cb
  8
Layer_26
  10
694.16519
  20
697.07959
  42
0.04176905
  0
VERTEX
  5
cc
  8
Layer_26
  10
693.3981
  20
697.15796
  0
VERTEX
  5
cd
  8
Layer_26
  10
629.97501
  20
697.15796
  0
SEQEND
  0
ENDSEC
  0
EOF
