<?xml version="1.0" encoding="UTF-8" standalone="no"?>
<svg xmlns="http://www.w3.org/2000/svg" xmlns:xlink="http://www.w3.org/1999/xlink" width="126.001mm" height="78.000mm" viewBox="-189.970306 64.842041 126.000732 78.000244">
    <path transform="matrix(-1,0,0,1,431.30484,-1569.731689)" style="stroke:#b45a00;stroke-width:0.050000mm;fill:none" d="M563.329834,1636.73877L563.354736,1636.985596C563.410828,1637.217407,563.527527,1637.428711,563.688477,1637.604492C563.806335,1637.708618,563.938171,1637.794678,564.077637,1637.866943C564.306458,1637.961182,564.557495,1637.97998,564.80127,1637.938232C564.953003,1637.891357,565.101318,1637.833984,565.239014,1637.75415C565.36615,1637.662109,565.478149,1637.550781,565.569824,1637.42334L565.682617,1637.215332C565.753784,1637.066895,565.787964,1636.903076,565.779053,1636.73877L565.779053,1634.57373L597.600098,1634.57373L597.600098,1636.736816L597.625,1636.983643L597.700195,1637.208252C597.796448,1637.425537,597.944214,1637.61731,598.139893,1637.752197L598.3479,1637.86499C598.504089,1637.909668,598.663269,1637.942993,598.824707,1637.961426C598.946533,1637.950806,599.067688,1637.933716,599.187012,1637.906494L599.298584,1637.864502C599.372681,1637.834229,599.439392,1637.791016,599.509277,1637.752197C599.630493,1637.65332,599.73938,1637.540894,599.840088,1637.421387L599.952881,1637.213379L600.024414,1636.983643L600.049316,1636.736816L600.049316,1634.57373L616.64209,1634.57373C618.906067,1634.61377,620.820374,1636.26416,621.188721,1638.498291L621.230957,1638.733398C621.265808,1638.970215,621.276672,1639.209473,621.274414,1639.44873L621.275146,1707.924561C621.279175,1708.074829,621.263184,1708.224731,621.240723,1708.373535C621.202881,1708.665283,621.145935,1708.954346,621.053223,1709.233643L620.944824,1709.542969L620.817383,1709.845459L620.67041,1710.134521C620.349121,1710.695801,619.922913,1711.189087,619.415771,1711.590332C618.71814,1712.146729,617.870422,1712.483154,616.981445,1712.561035L616.64209,1712.573975L499.906738,1712.573975C497.739105,1712.531006,495.878601,1711.017334,495.398438,1708.903076C495.313446,1708.507324,495.270233,1708.103638,495.274414,1707.698975L495.274414,1675.573975L499.227295,1675.573975C499.390228,1675.560181,499.552582,1675.540161,499.712891,1675.507568L499.990234,1675.415527C500.274658,1675.283081,500.533691,1675.102173,500.750977,1674.875732L500.849365,1674.753662L500.968506,1674.557861L501.070068,1674.352539L501.133545,1674.188721L501.181152,1674.019775C501.201599,1673.904419,501.219849,1673.788696,501.231934,1673.672119C501.228912,1673.490112,501.21402,1673.308594,501.185303,1673.128906L501.114502,1672.907227C500.87326,1672.250488,500.314636,1671.760376,499.630371,1671.614502L499.430908,1671.577148L499.227295,1671.573975L495.274414,1671.573975L495.274414,1639.44873C495.234833,1637.125,496.859497,1635.101563,499.139648,1634.6521C499.3927,1634.604248,499.649292,1634.578857,499.906738,1634.57373L563.329834,1634.57373L563.329834,1636.73877z"/>
</svg>
